# xmcd CD database file
# Copyright (C) 1993-1996 Ti Kan
#
# Track frame offsets:
#	182
#	15545
#	45727
#	59782
#	78137
#	99055
#	111107
#	130557
#
# Disc length: 2015 seconds
#
# Revision: 1
# Processed by: cddbd v1.4b41PL1 Copyright (c) Steve Scherf et al.
# Submitted via: CDValet v3.31 - Copyright (c) 1997 Greg Leichner
#
DISCID=5707dd08
DTITLE=Clarence Carter - Hooked On Love
DYEAR=1900
DGENRE=
TTITLE0=Trying To Sleep Tonight
TTITLE1=Granpa Can't Fly His Kite
TTITLE2=I Can't See Myself
TTITLE3=While You Were Loving Him
TTITLE4=I Feel It 
TTITLE5=Slip Away
TTITLE6=Let Me Be The Other Man
TTITLE7=What'd I Say
EXTD=
EXTT0=
EXTT1=
EXTT2=
EXTT3=
EXTT4=
EXTT5=
EXTT6=
EXTT7=
PLAYORDER=
